<?xml version="1.0" encoding="UTF-8" standalone="no"?>
<!-- Created with Inkscape (http://www.inkscape.org/) -->

<svg
   id="svg2"
   sodipodi:docname="frog01.svg"
   inkscape:export-filename="I:\web\ftp\于丹\Inkscape\青蛙1.png"
   viewBox="0 0 439.50724 473.22274"
   inkscape:export-xdpi="90"
   version="1.1"
   inkscape:export-ydpi="90"
   inkscape:version="1.1.1 (3bf5ae0d25, 2021-09-20)"
   width="439.50726"
   height="473.22275"
   xmlns:inkscape="http://www.inkscape.org/namespaces/inkscape"
   xmlns:sodipodi="http://sodipodi.sourceforge.net/DTD/sodipodi-0.dtd"
   xmlns="http://www.w3.org/2000/svg"
   xmlns:svg="http://www.w3.org/2000/svg"
   xmlns:rdf="http://www.w3.org/1999/02/22-rdf-syntax-ns#"
   xmlns:cc="http://creativecommons.org/ns#"
   xmlns:dc="http://purl.org/dc/elements/1.1/">
  <defs
     id="defs141" />
  <sodipodi:namedview
     id="base"
     bordercolor="#666666"
     inkscape:pageshadow="2"
     inkscape:window-y="0"
     pagecolor="#ffffff"
     inkscape:window-height="1001"
     inkscape:window-maximized="1"
     inkscape:zoom="0.77850965"
     inkscape:window-x="0"
     showgrid="false"
     borderopacity="1.0"
     inkscape:current-layer="layer1"
     inkscape:cx="75.143577"
     inkscape:cy="307.63909"
     inkscape:window-width="1920"
     inkscape:pageopacity="0.0"
     inkscape:document-units="px"
     inkscape:pagecheckerboard="0"
     fit-margin-top="0"
     fit-margin-left="0"
     fit-margin-right="0"
     fit-margin-bottom="0" />
  <g
     id="layer1"
     inkscape:label="Layer 1"
     inkscape:groupmode="layer"
     transform="translate(-151.82422,-254.56233)">
    <g
       id="g3003"
       transform="translate(0,-150)">
      <g
         id="g2951"
         transform="translate(-80,80)">
        <ellipse
           id="path2953"
           style="fill:#c8aa00;fill-opacity:1"
           transform="matrix(-0.50218,-1.5883,0.76322,-0.24131,220.87,882.62)"
           cx="39.889313"
           cy="419.37115"
           rx="41.501003"
           ry="31.025021" />
        <circle
           id="path2955"
           style="fill:#ffd400;fill-opacity:1"
           transform="matrix(-0.71126,-1.0152,1.0152,-0.71126,49.018,1044.4)"
           cx="-42.70977"
           cy="431.86176"
           r="10.319847" />
        <circle
           id="path2957"
           style="fill:#ffd400;fill-opacity:1"
           transform="matrix(-0.71126,-1.0152,1.0152,-0.71126,74.062,1048.8)"
           cx="-42.70977"
           cy="431.86176"
           r="10.319847" />
        <circle
           id="path2959"
           style="fill:#ffd400;fill-opacity:1"
           transform="matrix(-0.71126,-1.0152,1.0152,-0.71126,87.965,1026.9)"
           cx="-42.70977"
           cy="431.86176"
           r="10.319847" />
      </g>
      <g
         id="g2961"
         transform="translate(80,80)">
        <ellipse
           id="path2963"
           style="fill:#c8aa00;fill-opacity:1"
           transform="matrix(0.50218,-1.5883,-0.76322,-0.24131,523.22,882.62)"
           cx="39.889313"
           cy="419.37115"
           rx="41.501003"
           ry="31.025021" />
        <circle
           id="path2965"
           style="fill:#ffd400;fill-opacity:1"
           transform="matrix(0.71126,-1.0152,-1.0152,-0.71126,695.08,1044.4)"
           cx="-42.70977"
           cy="431.86176"
           r="10.319847" />
        <circle
           id="path2967"
           style="fill:#ffd400;fill-opacity:1"
           transform="matrix(0.71126,-1.0152,-1.0152,-0.71126,670.03,1048.8)"
           cx="-42.70977"
           cy="431.86176"
           r="10.319847" />
        <circle
           id="path2969"
           style="fill:#ffd400;fill-opacity:1"
           transform="matrix(0.71126,-1.0152,-1.0152,-0.71126,656.13,1026.9)"
           cx="-42.70977"
           cy="431.86176"
           r="10.319847" />
      </g>
    </g>
    <circle
       id="path2889"
       style="fill:#ffd400;fill-opacity:1"
       transform="matrix(1.2925,0,0,0.75684,69.207,309.62)"
       cx="235.71359"
       cy="391.87305"
       r="114.7991" />
    <path
       id="path3299"
       style="fill:#ffd400;fill-opacity:1"
       d="M 370.23047,315.17578 A 218.40529,133.93611 0 0 0 151.82422,449.11133 218.40529,133.93611 0 0 0 370.23047,583.04883 218.40529,133.93611 0 0 0 588.63477,449.11133 218.40529,133.93611 0 0 0 370.23047,315.17578 Z" />
    <circle
       id="path3301"
       style="fill:#d3a904;fill-opacity:1"
       transform="matrix(0.80985,0,0,0.80985,54.841,30.174)"
       cx="235.71359"
       cy="391.87305"
       r="114.7991" />
    <ellipse
       id="path3303"
       style="fill:#d3a904;fill-opacity:1"
       transform="matrix(0.80985,0,0,0.80985,307.47,30.174)"
       cx="235.71359"
       cy="391.87305"
       rx="114.79758"
       ry="114.7991" />
    <circle
       id="path3311"
       style="fill:#ffffff"
       transform="matrix(0.66403,0,0,0.66403,98.516,87.317)"
       cx="235.71359"
       cy="391.87305"
       r="114.7991" />
    <circle
       id="path3313"
       style="fill:#ffffff"
       transform="matrix(0.66403,0,0,0.66403,332.54,87.317)"
       cx="235.71359"
       cy="391.87305"
       r="114.7991" />
    <path
       id="path3327"
       sodipodi:rx="114.7991"
       sodipodi:ry="114.7991"
       style="fill:#000000"
       sodipodi:type="arc"
       d="M 350.5127,391.87305 A 114.7991,114.7991 0 0 1 255.51019,504.95235 114.7991,114.7991 0 0 1 127.74216,430.8731 114.7991,114.7991 0 0 1 178.6786,292.24452 114.7991,114.7991 0 0 1 324.01415,318.51199 l -88.30056,73.36106 z"
       transform="matrix(0.42542,0,0,0.42542,368.83,180.82)"
       sodipodi:cy="391.87305"
       sodipodi:cx="235.71359"
       sodipodi:end="5.5899376"
       sodipodi:start="0"
       sodipodi:arc-type="slice" />
    <path
       id="path3331"
       sodipodi:rx="114.7991"
       sodipodi:ry="114.7991"
       style="fill:#000000"
       sodipodi:type="arc"
       d="M 350.5127,391.87305 A 114.7991,114.7991 0 0 1 255.51019,504.95235 114.7991,114.7991 0 0 1 127.74216,430.8731 114.7991,114.7991 0 0 1 178.6786,292.24452 114.7991,114.7991 0 0 1 324.01415,318.51199 l -88.30056,73.36106 z"
       transform="matrix(-0.42542,0,0,0.42542,375.27,180.82)"
       sodipodi:cy="391.87305"
       sodipodi:cx="235.71359"
       sodipodi:end="5.5899376"
       sodipodi:start="0"
       sodipodi:arc-type="slice" />
    <circle
       id="path3337"
       style="fill:#ff0000"
       transform="matrix(0.28116,0,0,0.28116,181.85,386.11)"
       cx="235.71359"
       cy="391.87305"
       r="114.7991" />
    <circle
       id="path3339"
       style="fill:#ff0000"
       transform="matrix(0.28116,0,0,0.28116,429.69,386.11)"
       cx="235.71359"
       cy="391.87305"
       r="114.7991" />
    <path
       id="path3358"
       style="fill:#000000"
       d="m 263.32,508.69 c 7.6281,20.295 53.358,35.902 108.73,35.902 55.374,0 101.1,-15.607 108.73,-35.902 -27.15,15.399 -65.795,25.092 -108.73,25.092 -42.937,0 -81.582,-9.6933 -108.73,-25.092 z" />
    <ellipse
       id="path4156"
       style="fill:#ffffff"
       transform="matrix(1.06,0,0,0.71689,126.58,236.1)"
       cx="233.29204"
       cy="560.79694"
       rx="101.13351"
       ry="55.603287" />
    <g
       id="g2903"
       transform="translate(0,-80)">
      <ellipse
         id="path4184"
         style="fill:#c8aa00;fill-opacity:1"
         transform="matrix(-0.50218,-1.5883,0.76322,-0.24131,220.87,882.62)"
         cx="39.889313"
         cy="419.37115"
         rx="41.501003"
         ry="31.025021" />
      <circle
         id="path4186"
         style="fill:#ffd400;fill-opacity:1"
         transform="matrix(-0.71126,-1.0152,1.0152,-0.71126,49.018,1044.4)"
         cx="-42.70977"
         cy="431.86176"
         r="10.319847" />
      <circle
         id="path4188"
         style="fill:#ffd400;fill-opacity:1"
         transform="matrix(-0.71126,-1.0152,1.0152,-0.71126,74.062,1048.8)"
         cx="-42.70977"
         cy="431.86176"
         r="10.319847" />
      <circle
         id="path4190"
         style="fill:#ffd400;fill-opacity:1"
         transform="matrix(-0.71126,-1.0152,1.0152,-0.71126,87.965,1026.9)"
         cx="-42.70977"
         cy="431.86176"
         r="10.319847" />
    </g>
    <g
       id="g2909"
       transform="translate(0,-80)">
      <ellipse
         id="path4221"
         style="fill:#c8aa00;fill-opacity:1"
         transform="matrix(0.50218,-1.5883,-0.76322,-0.24131,523.22,882.62)"
         cx="39.889313"
         cy="419.37115"
         rx="41.501003"
         ry="31.025021" />
      <circle
         id="path4223"
         style="fill:#ffd400;fill-opacity:1"
         transform="matrix(0.71126,-1.0152,-1.0152,-0.71126,695.08,1044.4)"
         cx="-42.70977"
         cy="431.86176"
         r="10.319847" />
      <circle
         id="path4225"
         style="fill:#ffd400;fill-opacity:1"
         transform="matrix(0.71126,-1.0152,-1.0152,-0.71126,670.03,1048.8)"
         cx="-42.70977"
         cy="431.86176"
         r="10.319847" />
      <circle
         id="path4227"
         style="fill:#ffd400;fill-opacity:1"
         transform="matrix(0.71126,-1.0152,-1.0152,-0.71126,656.13,1026.9)"
         cx="-42.70977"
         cy="431.86176"
         r="10.319847" />
    </g>
  </g>
  <metadata
     id="metadata138">
    <rdf:RDF>
      <cc:Work>
        <dc:format>image/svg+xml</dc:format>
        <dc:type
           rdf:resource="http://purl.org/dc/dcmitype/StillImage" />
        <cc:license
           rdf:resource="http://creativecommons.org/publicdomain/zero/1.0/" />
        <dc:publisher>
          <cc:Agent
             rdf:about="http://openclipart.org/">
            <dc:title>Openclipart</dc:title>
          </cc:Agent>
        </dc:publisher>
        <dc:title>frog-by Ramy</dc:title>
        <dc:date>2010-12-14T05:19:16</dc:date>
        <dc:description>Cartoon frog.</dc:description>
        <dc:source>https://openclipart.org/detail/100621/frog-by-ramy-by-bigfrog2010</dc:source>
        <dc:creator>
          <cc:Agent>
            <dc:title>BigFrog2010</dc:title>
          </cc:Agent>
        </dc:creator>
        <dc:subject>
          <rdf:Bag>
            <rdf:li>animal</rdf:li>
            <rdf:li>cartoon</rdf:li>
            <rdf:li>frog</rdf:li>
            <rdf:li>reptile</rdf:li>
          </rdf:Bag>
        </dc:subject>
      </cc:Work>
      <cc:License
         rdf:about="http://creativecommons.org/publicdomain/zero/1.0/">
        <cc:permits
           rdf:resource="http://creativecommons.org/ns#Reproduction" />
        <cc:permits
           rdf:resource="http://creativecommons.org/ns#Distribution" />
        <cc:permits
           rdf:resource="http://creativecommons.org/ns#DerivativeWorks" />
      </cc:License>
    </rdf:RDF>
  </metadata>
</svg>
